<svg viewbox="0 0 1749.38 1736.6" xmlns="http://www.w3.org/2000/svg" xmlns:xlink="http://www.w3.org/1999/xlink"><defs></defs><title>Objektrahmen-Rundgang (5)</title><g id="Bilder"><image data-name="027" height="3840" id="_027" transform="translate(0 0) scale(0.3)" width="5760" xlink:href="/media/filer_public_thumbnails/filer_public/5a/c4/5ac4de83-f601-4ed9-bb4f-a747300b924e/027_f3a9294-28.jpg__2000x2000_q85_subsampling-2.jpg"/></g><g id="Objektrahmen"><g data-name="011-Wissensexplosion" id="_011-Wissensexplosion"></g><g data-name="026-Wissensexplosion" id="_026-Wissensexplosion"></g><polygon class="cls-1" data-name="027-58. Skelett einer Amsel" id="_027-58._Skelett_einer_Amsel" onclick="window.open('/showBook/58')" points="706.21 659.64 722.55 659.64 768.3 659.64 768.3 751.15 721.24 755.08 706.21 755.08 706.21 659.64" transform="translate(-2.59 -285.76)"></polygon><path class="cls-1" d="M782.86,707.19s-20.64,5.79-22.2,7.8.24,12.13.24,12.13a19.41,19.41,0,0,0,10.26,3c5.94,0,9.91-.1,9.91-.1l3.79,6.53s9,1.54,16.34.42,10.79-1.2,15.71-4.11c2.42-1.43,5.27-7.52,3.37-11.91s-7.42-7.22-9.46-6.88c-4,.67-10.18,1.09-10.18,1.09s-.93-5.89-4.29-6.12S782.86,707.19,782.86,707.19Z" data-name="027-60. Fossilien" id="_027-60._Fossilien" onclick="window.open('/showBook/60')" transform="translate(0.0 0.0)"></path><polygon class="cls-1" data-name="027-61. Leonardo-Sintflut" id="_027-61._Leonardo-Sintflut" onclick="window.open('/showBook/61')" points="805.81 989.16 860.21 1012.15 971.52 988.24 915.14 966.42 805.81 989.16" transform="translate(-2.59 -285.76)"></polygon><polygon class="cls-1" data-name="027-55. Leonardo- Studien zum Baumwuchs" id="_027-55._Leonardo-_Studien_zum_Baumwuchs" onclick="window.open('/showBook/55')" points="829.86 965.67 845.1 972.76 882.68 965.67 863.89 958.31 829.86 965.67" transform="translate(-2.59 -285.76)"></polygon><polygon class="cls-1" data-name="027-59. Leonardo-Fossilien" id="_027-59._Leonardo-Fossilien" onclick="window.open('/showBook/59')" points="710.89 990.13 770.09 978.36 807.27 994.13 796.68 995.54 785.5 993.66 763.84 1000.28 762.61 1006.13 753.96 1008.07 710.89 990.13" transform="translate(-2.59 -285.76)"></polygon><path class="cls-1" d="M878.35,440.12l-9.85,29.2s-26.89,10.59-30.82,18-4.37,23.17,8.75,28,39.79,3.94,57.28,2.19,35.43-.87,41.55-9.62-2.63-24-15.31-28.39-20.11-2.66-20.11-2.66-.44-7.19-6.13-7.53a113.82,113.82,0,0,1-12.45-1.65s2-15.31,11.58-21,11.81-7.88,15.74-6.56,16.68,8.3,28.68,8.3,25.11,2.19,33.86-1.74,11.81-6.13,14-13.56,3.94-14.87,7-17.49-7-11.37-15.74-9.63-15.31-7-22.74-7-14.44,7-17.93,6.56-3.94-10.06,6.56-12.68,19.24-2.63,28-6.13,8.75-6.07,6.13-12.87-15.31-13.37-24.06-13.37-12.68-1.75-23.17,2.63-17.5,5.25-22.31,6.56-10.06-7.69-5.25-9.53,14.87-4.9,17.5-10.59,8.74-14.43,15.74-15.74,6.56-9.62,3.94-15.75-19.68-17.93-26.68-22.3-21-8.74-31.05-7-16.45.44-27,1.75-11,8.31-18,13.12-18.37,7-19.24,14.87,3.06,14.43,13.12,16.18,21.15.44,24.13,6.13,9,11.8,4,15.74-15.47-3.06-23.34-3.5-17.06-1.75-23.18,0-12.68-1.31-16.18,2.62-2.63,11.42,0,18.18-2.63,11.56,3.06,15.06,16.18,2.19,15.74,8.75-12.48.43-21.11.43-19.12.13-19.56,5.53-.87,12.55,7.44,17.94,8.74,14.14,14.87,17.2,18.36,3.5,27.11.88,14.43-5.25,24.93-2.19A71.59,71.59,0,0,0,878.35,440.12Z" data-name="027-56. konservierter Baum" id="_027-56._konservierter_Baum" onclick="window.open('/showBook/56')" transform="translate(0.0 0.0)"></path><g data-name="028-12--Codices" id="_028-12--Codices"></g></g></svg>