<svg viewbox="0 0 1749.38 1736.6" xmlns="http://www.w3.org/2000/svg" xmlns:xlink="http://www.w3.org/1999/xlink"><defs></defs><title>Objektrahmen-Rundgang (5)</title><g id="Bilder"><image data-name="047" height="3840" id="_047" transform="translate(0 0) scale(0.3)" width="5760" xlink:href="/media/filer_public_thumbnails/filer_public/ac/5f/ac5f5773-39f4-4676-95d6-9cd7f5261297/047_f3a9402-49.jpg__2000x2000_q85_subsampling-2.jpg"/></g><g id="Objektrahmen"><g data-name="011-Wissensexplosion" id="_011-Wissensexplosion"></g><g data-name="026-Wissensexplosion" id="_026-Wissensexplosion"></g><g data-name="028-12--Codices" id="_028-12--Codices"></g><path class="cls-1" d="M58.91,472.88l42.28,4.17,9.46,12.52,79.84-20.86L213.3,448.4l-10.57-12.79-69.55,17.24s-1.39-12-18.08-13.63-59.81,1.95-59.81,1.95l-2.78,4.17Z" data-name="047-23. Petrarca" id="_047-23._Petrarca" onclick="window.open('/showBook/23')" transform="translate(0.0 0.0)"></path><polygon class="cls-1" data-name="047-32. Alberti - de pictura" id="_047-32._Alberti_-_de_pictura" onclick="window.open('/showBook/32')" points="428.69 743.06 408.11 757.25 441.49 770.6 444.55 777.27 482.66 763.64 498.24 748.9 492.96 743.06 463.47 754.19 428.69 743.06" transform="translate(-2.59 -285.76)"></polygon><polygon class="cls-1" data-name="047-34. Alberti - Fabulae" id="_047-34._Alberti_-_Fabulae" onclick="window.open('/showBook/34')" points="632.05 733.04 613.69 753.07 656.25 771.15 660.7 779.78 704.65 762.81 717.73 741.67 709.66 734.43 670.72 750.01 632.05 733.04" transform="translate(-2.59 -285.76)"></polygon><path class="cls-1" d="M564.09,412.52l-40.34,31.15,2.23,5.57L609.15,467l20.31-19.75,38.67,17,39-15.58,4,3.58,11.32-6.36,22.53-31.16L728.77,410s-54.8,15-64,19.48-10.85,7.78-10.85,7.78-3.89-10-28.93-15.57S580.5,410,580.5,410Z" data-name="047-35. Valla, Giorgio - De expetendis" id="_047-35._Valla_Giorgio_-_De_expetendis" onclick="window.open('/showBook/35')" transform="translate(0.0 0.0)"></path><polygon class="cls-1" data-name="047-31. Vitruvius - de architectura" id="_047-31._Vitruvius_-_de_architectura" onclick="window.open('/showBook/31')" points="379.53 715.85 347.45 731.89 338.54 743.06 389.63 766.54 399.34 758.22 415.36 752.25 428.69 743.06 453.18 725.95 444.88 723.37 420.33 736.44 379.53 715.85" transform="translate(-2.59 -285.76)"></polygon><polygon class="cls-1" data-name="047-33.Alberti-De re aedificatoria" id="_047-33.Alberti-De_re_aedificatoria" onclick="window.open('/showBook/33')" points="402.7 697.43 466.86 713.87 521.91 697.43 526.34 710.3 498.24 733.67 455.77 751.72 430.62 743.06 453.18 725.95 444.88 723.37 420.33 736.44 379.53 715.85 402.7 697.43" transform="translate(-2.59 -285.76)"></polygon><path class="cls-1" d="M917.42,452.35,883.71,475.5V479l41.43,18.28,8.32,14.62,51.38-14,28.23-23.56-10-11.37-40.62,9.54s.82-6.29-16.45-11.57S917.42,452.35,917.42,452.35Z" data-name="047-36. Crescentiis" id="_047-36._Crescentiis" onclick="window.open('/showBook/36')" transform="translate(0.0 0.0)"></path><path class="cls-1" d="M974.89,434.07l-34.12,25.2s15.86,4.31,18.69,8.1,3,5.08,3,5.08l40.62-9.54,10,11.37,22.54-4.47,27-25.79-6.29-2.64-39.4,15.84s-5.69-6.3-16.65-10.56-24-13.61-24-13.61Z" data-name="047-45. Ghiberti -Zibaldone" id="_047-45._Ghiberti_-Zibaldone" onclick="window.open('/showBook/45')" transform="translate(0.0 0.0)"></path><polygon class="cls-1" data-name="047-43. Philelphus" id="_047-43._Philelphus" onclick="window.open('/showBook/43')" points="1044.9 761.86 1017.08 779.33 1065.21 804.71 1068.46 812.23 1122.48 794.96 1147.05 776.69 1140.96 772.22 1092.62 787.04 1044.9 761.86" transform="translate(-2.59 -285.76)"></polygon><polygon class="cls-1" data-name="047-46. Brant - Narrenschiff" id="_047-46._Brant_-_Narrenschiff" onclick="window.open('/showBook/46')" points="1092.83 714.75 1065.21 740.94 1110.37 781.6 1140.96 772.22 1144.21 774.6 1165.33 763.28 1186.65 735.66 1174.06 724.5 1133.65 752.11 1092.83 714.75" transform="translate(-2.59 -285.76)"></polygon><path class="cls-1" d="M1172.9,484.84l-23.76,19.09,55,29.45,2.84,9.13,68.44-16,17.06-21.12-8.73-6.5-55.65,15.64s-7.1-5.08-22.94-13.2S1172.9,484.84,1172.9,484.84Z" data-name="047-42. Perotti - Rudimenta" id="_047-42._Perotti_-_Rudimenta" onclick="window.open('/showBook/42')" transform="translate(0.0 0.0)"></path><path class="cls-1" d="M1208,453.16s38.58,8.73,44.47,13.6,53.21-4,53.21-4l6.7,11.07L1295,505.35h-2.44l-8.73-6.5-45.07,12.67-2.86-8.2-48.13-16.65Z" data-name="047-44. Poggio Bracciolini - facetarium" id="_047-44._Poggio_Bracciolini_-_facetarium" onclick="window.open('/showBook/44')" transform="translate(0.0 0.0)"></path><path class="cls-1" d="M1474.68,501.86l-51.16,29.47,105.19,33.15s-2,6.27,0,17.26,7.77,12.62,7.77,12.62l128.11-5.73,35.2-33.15-7.37-7.37-4.09-17.19-111.74,2.46s4.92-9.42-16.78-13.92S1474.68,501.86,1474.68,501.86Z" data-name="047-49. Ovid - Metamorphosen" id="_047-49._Ovid_-_Metamorphosen" onclick="window.open('/showBook/49')" transform="translate(0.0 0.0)"></path></g></svg>