<svg viewbox="0 0 1749.38 1736.6" xmlns="http://www.w3.org/2000/svg" xmlns:xlink="http://www.w3.org/1999/xlink"><defs></defs><title>Objektrahmen-Rundgang (5)</title><g id="Bilder"><image data-name="034" height="3840" id="_034" transform="translate(0 0) scale(0.3)" width="5760" xlink:href="/media/filer_public_thumbnails/filer_public/e5/c6/e5c66281-09f9-4d03-bcbb-68fe085d3e93/034_f3a9345-36.jpg__2000x2000_q85_subsampling-2.jpg"/></g><g id="Objektrahmen"><g data-name="011-Wissensexplosion" id="_011-Wissensexplosion"></g><g data-name="026-Wissensexplosion" id="_026-Wissensexplosion"></g><g data-name="028-12--Codices" id="_028-12--Codices"></g><polygon class="cls-1" data-name="034-84. Francesca- Geißelung" id="_034-84._Francesca-_Geißelung" onclick="window.open('/showBook/84')" points="85.67 321.79 77.86 846.72 737.15 817.04 737.15 412.4 85.67 321.79" transform="translate(-2.59 -285.76)"></polygon><polygon class="cls-1" data-name="034-87. Leonardo- Atlas weibl. Anatomie" id="_034-87._Leonardo-_Atlas_weibl._Anatomie" onclick="window.open('/showBook/87')" points="788.71 520.2 782.46 776.42 913.09 773.2 916.12 537.74 788.71 520.2" transform="translate(-2.59 -285.76)"></polygon><polygon class="cls-1" data-name="034-86.Pacioli+Leonardo-De divina proportione" id="_034-86.Pacioli_Leonardo-De_divina_proportione" onclick="window.open('/showBook/86')" points="965.89 596 965.89 717.98 1027.18 717.98 1027.18 602.67 965.89 596" transform="translate(-2.59 -285.76)"></polygon><polygon class="cls-1" data-name="034-83. Leonardo-Perspektivrahmen" id="_034-83._Leonardo-Perspektivrahmen" onclick="window.open('/showBook/83')" points="1099.4 606.92 1099.4 721.62 1143.09 721.62 1143.09 611.17 1099.4 606.92" transform="translate(-2.59 -285.76)"></polygon><polygon class="cls-1" data-name="034-80. Dürer-Melencolia" id="_034-80._Dürer-Melencolia" onclick="window.open('/showBook/80')" points="1171.61 623.31 1171.61 717.98 1212.28 717.98 1212.28 628.16 1171.61 623.31" transform="translate(-2.59 -285.76)"></polygon><polygon class="cls-1" data-name="034-67. Leonardo-Bewerbungsschreiben" id="_034-67._Leonardo-Bewerbungsschreiben" onclick="window.open('/showBook/67')" points="1684.69 664.27 1684.69 723.77 1739.18 723.77 1738.17 661.12 1684.69 664.27" transform="translate(-2.59 -285.76)"></polygon><polygon class="cls-1" data-name="034-69. Leonardo-anatomische Studien" id="_034-69._Leonardo-anatomische_Studien" onclick="window.open('/showBook/69')" points="1547.66 642.33 1537.4 647.07 1535.3 731.25 1545.03 729.41 1547.66 643.65 1547.66 642.33" transform="translate(-2.59 -285.76)"></polygon></g></svg>