<svg viewbox="0 0 1749.38 1736.6" xmlns="http://www.w3.org/2000/svg" xmlns:xlink="http://www.w3.org/1999/xlink"><defs></defs><title>Objektrahmen-Rundgang (5)</title><g id="Bilder"><image data-name="045" height="3840" id="_045" transform="translate(0 0) scale(0.3)" width="5760" xlink:href="/media/filer_public_thumbnails/filer_public/e9/36/e936eadf-9574-4cab-862a-5d3cf65cbd84/045_f3a9400-47.jpg__2000x2000_q85_subsampling-2.jpg"/></g><g id="Objektrahmen"><g data-name="011-Wissensexplosion" id="_011-Wissensexplosion"></g><g data-name="026-Wissensexplosion" id="_026-Wissensexplosion"></g><g data-name="028-12--Codices" id="_028-12--Codices"></g><polygon class="cls-1" data-name="045-11. Aesop und del Tuppo" id="_045-11._Aesop_und_del_Tuppo" onclick="window.open('/showBook/11')" points="266.43 791.62 315.72 811.59 355.66 834.11 374.78 828.58 417.7 784.82 370.53 771.22 333.14 804.79 266.43 791.62" transform="translate(-2.59 -285.76)"></polygon><polygon class="cls-1" data-name="045-9. Ptolemäus" id="_045-9._Ptolemäus" onclick="window.open('/showBook/9')" points="300.85 752.52 353.96 777.17 314.58 801.12 266.43 791.62 273.96 794.67 273.23 820.09 197.59 805.21 139.8 773.77 226.06 792.47 300.85 752.52" transform="translate(-2.59 -285.76)"></polygon><polygon class="cls-1" data-name="045-10. Heron" id="_045-10._Heron" onclick="window.open('/showBook/10')" points="548.15 771.22 506.08 754.65 460.19 780.57 417.7 771.22 409.2 780.57 417.7 784.82 452.97 799.69 495.88 812.44 504.38 799.26 548.15 771.22" transform="translate(-2.59 -285.76)"></polygon><polygon class="cls-1" data-name="045-12. Euklid" id="_045-12._Euklid" onclick="window.open('/showBook/12')" points="469.96 721.93 519.25 739.77 532 752.52 521.21 760.61 506.08 754.65 460.19 780.57 418.12 769.09 353.96 741.53 356.94 736.8 406.23 751.25 469.96 721.93" transform="translate(-2.59 -285.76)"></polygon><polygon class="cls-1" data-name="045-15. Biblia" id="_045-15._Biblia" onclick="window.open('/showBook/15')" points="1043.24 686.48 1072.74 714.47 1136.96 724.28 1140.96 745.22 1222.33 731.78 1214.09 706.46 1181.13 687.89 1118.53 699.69 1048.77 683.72 1043.24 686.48" transform="translate(-2.59 -285.76)"></polygon><polygon class="cls-1" data-name="045-16. Tartaglia" id="_045-16._Tartaglia" onclick="window.open('/showBook/16')" points="1306.59 698.77 1342.23 712.91 1345.92 721.51 1290.91 741.79 1285.69 730.73 1237.44 720.28 1214.09 706.46 1203.63 700.57 1212.25 698.77 1255.27 707.99 1262.95 712.29 1306.59 698.77" transform="translate(-2.59 -285.76)"></polygon><polygon class="cls-1" data-name="045-21. Dante - la commedia" id="_045-21._Dante_-_la_commedia" onclick="window.open('/showBook/21')" points="1563.18 696.13 1610.02 721.82 1542.03 742.97 1460.86 719.54 1431.55 699.57 1447.22 696.13 1506.36 711.43 1563.18 696.13" transform="translate(-2.59 -285.76)"></polygon><polygon class="cls-1" data-name="045-23. Petrarca" id="_045-23._Petrarca" onclick="window.open('/showBook/23')" points="1700.97 707.04 1738.71 721.82 1738.71 732.51 1686.87 742.97 1677.1 733.87 1610.02 721.82 1585.41 708.32 1595.01 704.99 1636.39 704.99 1657.77 715.45 1700.97 707.04" transform="translate(-2.59 -285.76)"></polygon></g></svg>