<svg viewbox="0 0 1749.38 1736.6" xmlns="http://www.w3.org/2000/svg" xmlns:xlink="http://www.w3.org/1999/xlink"><defs></defs><title>Objektrahmen-Rundgang (5)</title><g id="Bilder"><image data-name="035" height="3840" id="_035" transform="translate(0 0) scale(0.3)" width="5760" xlink:href="/media/filer_public_thumbnails/filer_public/b7/2b/b72b6aaa-0e3e-43cb-8b2d-adcd6dad53cf/035_f3a9351-37.jpg__2000x2000_q85_subsampling-2.jpg"/></g><g id="Objektrahmen"><g data-name="011-Wissensexplosion" id="_011-Wissensexplosion"></g><g data-name="026-Wissensexplosion" id="_026-Wissensexplosion"></g><g data-name="028-12--Codices" id="_028-12--Codices"></g><polygon class="cls-1" data-name="035-81. Camera obscura" id="_035-81._Camera_obscura" onclick="window.open('/showBook/81')" points="59.55 354.36 472.41 361.5 485.9 1229.59 82.06 1267.58 59.55 354.36" transform="translate(-2.59 -285.76)"></polygon><path class="cls-1" d="M644,295.33l-13-10.55,2.84-11.36L623.33,269l-3.65,5.68-149-144.45,7.25,466.23s53.21-34.09,79.43-77.51,47.72-79.53,64.77-143.64S644,295.33,644,295.33Z" data-name="035-106. Quadrant" id="_035-106._Quadrant" onclick="window.open('/showBook/106')" transform="translate(0.0 0.0)"></path><polygon class="cls-1" data-name="035-98.Astrolabium" id="_035-98.Astrolabium" onclick="window.open('/showBook/98')" points="718.51 695.19 734.24 740.88 744.37 745.84 748.04 740.66 718.51 671.27 712.91 671.27 710.97 679.67 714.85 687.65 718.51 695.19" transform="translate(-2.59 -285.76)"></polygon><path class="cls-1" d="M937.83,396.06c1.1,21.71,19.53,25.5,19.53,25.5l.11,16.34-9.27,9.27a57.64,57.64,0,0,0,16.71,2.07,96,96,0,0,0,15.86-2.07l-10-8.05-.1-17.32s18.89-4.51,18.89-26.35c0-8.7-2.32-26.1-25.25-27.2C942.37,367.2,937.83,386.43,937.83,396.06Z" data-name="035-97.Armillarsphäre" id="_035-97.Armillarsphäre" onclick="window.open('/showBook/97')" transform="translate(0.0 0.0)"></path><path class="cls-1" d="M1170.74,386.18c-.51,56.36,42.14,57.37,42.14,57.37s6.6,17.77,3.55,30.72-31.22,26.65-39.6,41.63-13.71,30.21-14.22,38.84,55.09,26,67,23.94,39.85-12,42.65-17.09-6.35-39.34-20.57-51.53-25.13-14.72-25.89-31.22,2.29-35.54,2.29-35.54,46.44-12.95,46.45-50.77c-8.12-31.73-24.62-56.09-50.51-56.1S1171,356.86,1170.74,386.18Z" data-name="035-105. Globus" id="_035-105._Globus" onclick="window.open('/showBook/105')" transform="translate(0.0 0.0)"></path><polygon class="cls-1" data-name="035-84. Francesca- Geißelung" id="_035-84._Francesca-_Geißelung" onclick="window.open('/showBook/84')" points="1565.89 362.08 1565.89 709.33 1542.12 709.33 1484.03 686.22 1484.03 429.42 1543.44 362.08 1565.89 362.08" transform="translate(-2.59 -285.76)"></polygon><polygon class="cls-1" data-name="035-102.Martin Waldseemüller" id="_035-102.Martin_Waldseemüller" onclick="window.open('/showBook/102')" points="1423.29 523.16 1423.29 709.33 1499.21 709.33 1499.21 692.26 1484.03 686.22 1484.03 523.16 1423.29 523.16" transform="translate(-2.59 -285.76)"></polygon></g></svg>