<svg viewbox="0 0 1749.38 1736.6" xmlns="http://www.w3.org/2000/svg" xmlns:xlink="http://www.w3.org/1999/xlink"><defs></defs><title>Objektrahmen-Rundgang (5)</title><g id="Bilder"><image data-name="044" height="3840" id="_044" transform="translate(0 0) scale(0.3)" width="5760" xlink:href="/media/filer_public_thumbnails/filer_public/61/26/61260e0f-af99-4c7b-9766-b8fe0e844aec/044_f3a9398-46.jpg__2000x2000_q85_subsampling-2.jpg"/></g><g id="Objektrahmen"><g data-name="011-Wissensexplosion" id="_011-Wissensexplosion"></g><g data-name="026-Wissensexplosion" id="_026-Wissensexplosion"></g><g data-name="028-12--Codices" id="_028-12--Codices"></g><polygon class="cls-1" data-name="044-1.245r Codice" id="_044-1.245r_Codice" onclick="window.open('/showBook/1')" points="167.84 982.63 148.2 1023.21 247.04 1017.32 258.82 977.39 167.84 982.63" transform="translate(-2.59 -285.76)"></polygon><polygon class="cls-1" data-name="044-11. Aesop und del Tuppo" id="_044-11._Aesop_und_del_Tuppo" onclick="window.open('/showBook/11')" points="1067.22 895.66 1146.1 963.79 1190.93 977.54 1261.45 918.97 1204.67 884.9 1138.93 935.11 1067.22 892.08 1067.22 895.66" transform="translate(-2.59 -285.76)"></polygon><path class="cls-1" d="M1037.14,595l86.06-40.64,55,47.21-70.52,30.6-43-25.82v3.59l8.93,7.71L1071.8,641l-92.63-33.46-43.63-47.81s56.18,12.85,74.71,19S1037.14,595,1037.14,595Z" data-name="044-9. Ptolemäus" id="_044-9._Ptolemäus" onclick="window.open('/showBook/9')" transform="translate(0.0 0.0)"></path><polygon class="cls-1" data-name="044-10. Heron" id="_044-10._Heron" onclick="window.open('/showBook/10')" points="1254.28 904.03 1308.66 940.48 1379.78 970.37 1388.74 954.23 1462.25 922.56 1398.9 884.9 1328.38 912.4 1265.63 889.69 1254.28 904.03" transform="translate(-2.59 -285.76)"></polygon><path class="cls-1" d="M1339.54,532.22l74.7,46.46,21.52,20.47-19.35,11.94-20.1-11.94-70.52,27.49L1263,603.93l-9,11.42-83-77.16,7.17-9,83.67,41.83s6.57-9.56,23.9-16.73S1339.54,532.22,1339.54,532.22Z" data-name="044-12. Euklid" id="_044-12._Euklid" onclick="window.open('/showBook/12')" transform="translate(0.0 0.0)"></path></g></svg>