<svg viewbox="0 0 1749.38 1736.6" xmlns="http://www.w3.org/2000/svg" xmlns:xlink="http://www.w3.org/1999/xlink"><defs></defs><title>Objektrahmen-Rundgang (5)</title><g id="Bilder"><image data-name="022" height="3840" id="_022" transform="translate(0 0) scale(0.3)" width="5760" xlink:href="/media/filer_public_thumbnails/filer_public/7f/09/7f09644b-22d9-46a3-9b29-70140154b7bc/022_f3a9275-23.jpg__2000x2000_q85_subsampling-2.jpg"/></g><g id="Objektrahmen"><g data-name="011-Wissensexplosion" id="_011-Wissensexplosion"></g><polygon class="cls-1" data-name="022-48. Leonardo - Fabeln und Fazetien" id="_022-48._Leonardo_-_Fabeln_und_Fazetien" onclick="window.open('/showBook/48')" points="1199.08 1312.5 1264.98 1434.56 1477.65 1439.06 1482.14 1316.99 1203.58 1312.5 1199.08 1312.5" transform="translate(-2.59 -285.76)"></polygon><path class="cls-1" d="M1022.45,470.66l26.23,1-2.91-23.48s6.51-13.37,6.68-20.4-.68-22.46-8.57-26.4-21.43-6-31.71-2.74-16.11,8.74-16.29,12.51,2.23,12,.86,16.11-5.66,7.2-5.83,11,4,2.74,4.8,7.54S992.46,453.18,994,457s2.91,9.94,9.26,10.46a19.42,19.42,0,0,0,11-2.4Z" data-name="022-41. Gipskopf Aristoteles" id="_022-41._Gipskopf_Aristoteles" onclick="window.open('/showBook/41')" transform="translate(0.0 0.0)"></path><polygon class="cls-1" data-name="022-47b - leonardo - 2 Briefentwurf" id="_022-47b_-_leonardo_-_2_Briefentwurf" onclick="window.open('/showBook/47b_-_leonardo_-_2_Briefentwurf')" points="1396.46 1163.08 1483 1224 1483 1238.51 1300.24 1258.81 1198.71 1183.87 1396.46 1163.08" transform="translate(-2.59 -285.76)"></polygon><polygon class="cls-1" data-name="022-47a - Leonardo- 1 Briefentwurf" id="_022-47a_-_Leonardo-_1_Briefentwurf" onclick="window.open('/showBook/47a_-_Leonardo-_1_Briefentwurf')" points="1225.79 1108.93 1225.79 1160.66 1334.12 1169.63 1396.46 1163.08 1429.27 1186.18 1468.5 1192.09 1443.84 1128.75 1225.79 1108.93" transform="translate(-2.59 -285.76)"></polygon><g data-name="026-Wissensexplosion" id="_026-Wissensexplosion"></g><g data-name="028-12--Codices" id="_028-12--Codices"></g></g></svg>